<svg xmlns="http://www.w3.org/2000/svg" width="455" height="148" viewBox="0 0 2048 666"><path fill="#4D96B4" d="m1504 15 7 1 6 1h12l5 1 11 3h11l14 4 15 3 17 8 15 6 19 10 9 7 14 10 11 10 7 6 11 14 8 11 6 10 8 14 9 23 7 27v12l5 11-1 6-1 5 3 5 1 1v5l-3 3 1 4 2 4-1 4-7 5-3 6-5 2-6-2-6-8-6-1h-7l-9-2-4 2h-13l-2-1-4 1h-20l-4-2-6 1-5 1h-10l-5-1-6 1h-14l-7-3-5-2h-8l-3-5-3-13v-6l-2-7-2-15-8-7-7-10-8-9-5-7-5-1-9-1-9-4h-8l-3-2-8-2h-5l-6 5-12 7-11 8-5 4 1 9-2 6v24l15 10 16 9 7 6 12 3 8 4 13 4 12 6 8 3 9 2 8 4 14 4 13 7 8 1 14 6 13 5 13 8 11 4 20 11 11 10 12 8 11 13 9 12 6 11v2l4 2 5 10 9 23 3 14 3 7 1 9 1 10 1 5v15l-1 8 2 5v8l-3 7-2 15-8 27-10 24-8 11-8 10-20 20-14 11-7 7-18 11-10 6-16 6-10 4-18 6-32 6-31 2h-18l-17-1-18-2-9-2-9-1-22-6-19-8-7-1-22-12-10-6-4-4-12-6-10-9-8-7-22-22-9-14-7-10-3-6-2-8-5-5-4-8-5-13-4-13-1-11-4-11 1-11-2-5v-19l6-12 4-3 10-2h9l4 1 5-1h16l4 1h8l4-1h37l8 2 5-2h12l5 1 1-1h16l8 2 8 4 3 3v6l-4 5-8 3 4 6 8 22 4 13v2l5 2 12 10 11 7 8 6h12l4 1h8l5-1 12 2h7l11-6 15-7 10-5 3-8 5-12 5-18v-3l-9-6-5-6-22-18-9-1-10-4-18-6-8-4-7 1-10-2-7-2-10-1-15-5-5-2-1 2-7-2-13-5-6-1-10-5-9-6-9-2-9-6-12-6-13-11-8-5-8-7-16-16-9-12-9-11-12-18-5-11-4-12-4-9v-7l-3-13-1-14 1-6-1-6v-9l1-9 1-15 9-27 7-14 4-10 8-10 7-14 8-10 8-11 10-9 10-8 22-14 8-4 7-2 9-6 7-3 18-6 11-2 8-1 6-4 9-1h7l16-2 13 1zm3 21-3 1h-13l-21 5-4-3h-8l-10 4-6 1-17 8-10-1-19 11-12 9-14 6-13 10-9 11-6 7-5 5-11 18-5 15-8 10-7 17v18l-5 10v8l1 3-2 5 1 7 4 8 2 5v7l-1 5 4 10 2 9 7 8 4 8 3 10 10 11 17 17 6 9 11 9 5 4 16 8 7 6 15 8 5 3 7 1 12 4 6 4 17 5h9l11 1 10 5 19 3 23 5 9 6 15 3 20 12 8 8 4 7 9 6 4 6 5 5v9l-1 9v8l-6 10-6 18-3 4v2l-4 2-16 12-4 2-10 1-9 6-4 2h-16l-7 2h-8l-17-4-4 2-8-1-14-7-7-3-6-4-3-5-1-2-6-3-8-5-4-9-7-10-5-12v-4l2-1-2-6-4-8-1-4 5 5 7 3v-7l-2-7h-8l-6 3-1-4-3-1h-30l-12 2h-5l-5-3h-8l-3 1h-12l-4-1-5 2-14 1-3-2-8-1-2 3v14l-2 4 1 10 3 15 8 15v9l5 10 7 12 9 10 5 13 9 11 8 6 11 8 5 8 10 8 10 5 13 5 9 8 19 8 4 1 11 1 11 6 19 4h21l10 3h14l7 1 13-4 7 1 5 1 23-4 17-7h9l15-6 6-1 6-7 8-5 10-3 16-13 7-9 13-10 8-7 7-7 2-10 4-9 5-5 6-18 1-15 6-19-1-20-2-6v-12l1-3v-8l-5-16-8-14-1-9-8-18-12-11-5-8-2-5-7-7-10-8-7-2-11-8-5-5-5-1-14-8-4 1-12-5-5-5-3-1-2-3-3 1-13-4-3-2h-7l-12-4-5-2-1-3-5-1-1-2-10-2-11-5-5 1-14-7-8-5-7-1-13-7-10-3-8-6-4-4-23-14-1-2v-9l-1-7v-13l3-7v-17l5-10 17-17 12-4 11-9 9-3 6-1v2l9-1 16 4 3 1v2l9 2 13 2 6 4 10 9 6 5 3 8 2 4 7 7 6 5 8 24 1 11-3 1 1 5 7 1 3-2h13l6 1v2h9l5-2 8 2 6-1 7-2h10l6 3 11-1 5-1 4 1h9l12-6 1-1v-11l-5-19-5-15 2-5-5-12-3-10-2-3h-3l-2-4-5-9-4-10-7-10-6-7-9-6-9-11-11-8-5-2-1-3-5-1-11-6-7-5-16-8-3-2h-9l-9-3-10-6v2l-6-1-9-2-1-1h-5l-5 1-14-1-7-4zm-32 108 1 2zm-39 33 2 4 4-1v-2zm127 5 1 2zm-118 43-2 3 4 2 2-4zm153 9-3 3h4zm102 0-2 1-1 4 4-2zm-404 192v4h3l-1-4zm24 1-1 2h4v-2zm101 0v3l4-1v-2zm166 13v3l3 3 4-2-3-4zm-304 5v2h4v-2zm210 72 2 4-1-4zM831 27h7l4 4 1 3 20 3h7l1-1h31l12 2h7l5-2 16 1 6-1 12 1 6 2 7-1 1-1h10l7 1 2-1h15l11 4 8 5v6l-5 6-5 2-5-1-6 3h-16l-5-4-8 1-4 2-6-1-6-2-7 3-11 1-5-1-4-4-13 3-10-2-7 2-12 1-4-1-4-4h-6l-4 3-11-2-14 1-5 2-6 9v11l-3 14 1 3v10l-2 8-3 5v15l-2 5v10l-2 16-4 3v15l-3 13v15l-4 9-1 13-2 10v18l-2 5-3 5 1 10-2 8-1 9v9l-2 9-2 5-1 15-3 9 1 15-5 13-1 15-2 6v7l1 8-2 7-3 4-2 9 1 6-2 2-4 1-2 7v8l3 11v9l2 7v17l-3 10-5 5-7-1-6-12-4-12v-11l1-2v-8l-3-7v-11l-4-11v-10l2-7-4-13 1-9-4-7-3-12 1-5 2-2-1-5-3-9v-10l-4-14v-11l1-5-2-7-1-14-3-9-1-6v-10l1-2-3-15v-8l-5-15-1-8 2-3v-6l-2-4-1-14-5-18v-6l2-2-1-8-3-8v-10l-3-9-2-7v-6l2-2-1-9-2-6-2-15-3-11v-9l2-3-1-7-8-1-9 1-4-1-5-5-10 4-11-2-6 1-9 2h-8l-6-5-6 1-6 2-13-2-10 3h-12l3 7 1 6v9l-1 4 5 24 5 17-1 6-1 4 3 10 1 11 5 17v7l-1 6 3 11 2 13 4 13v7l-1 7 3 12 2 12 4 12v10l-1 1v6l3 10 2 12 4 13v7l-1 3 3 16 2 12 3 12v8l-1 5 4 15 1 9 4 15v7l-1 4 4 15v7l4 11 2 7v7l-2 3 4 14 2 12 3 15v14l3 12v6l3 9 2 13-1 2v7l3 13-6 1-3-6v-2l-6-2 1 4 2 6-10 2-3-12-3-20v-15l-4-12-3-24-1-9v-7l-4-17-4-23v-11l-4-13-4-21-1-17-3-13-4-24v-11l-4-14v-9l-4-21 1-8-3-7-3-19-2-10v-11l-2-8-2-6-4-30v-10l-4-13-4-26v-11l-3-11-1-11-3-9-1-15-1-9-3-6-1-12-2-8-1-13 1-11 7-9h-5l-2-4 2-4h23l9-1 12 2h49l3 1h8l1-1h34l8 2 10 5 4 5 3 8 1 13 1 3 2 28 2 8 1 11 1 3 2 28 3 8v12l2 6v8l2 7-1 2v8l3 6 1 14 2 13 1 17 2 5 3 20 1 9v10l-1 2 1 7h2l1 10 1 9 2 11v16l4 10v11l1 2h2l2-6 1-13 4-15 1-17 1-4 2-18 4-14v-11l2-10 1-14 3-11 1-3v-15l2-5v-11l4-15 2-5v-14l2-7v-8l2-14 3-6 1-7-1-1v-8l2-7 2-21 3-7V71l2-6v-7h-2v-5l3-4v-5l-3-5 2-3 7-2 5-6zm18 17-1 3 3-1v-2zm-253 1-1 2 4-1zm104 0v3zM572 70l1 3 3-1-1-2zm219 231v2h2v-2zm-37 34v3l2-1v-2z"/><path fill="#4D96B4" d="m1117 35 15 1 4-1h9l11 2h7l5-2 17 1 7-1 19 2 8-2h27l13 2 9 5 1 1v20l-2 6v10l-4 17-2 6 1 4v7l-4 25-4 10-1 4 2 5-2 9-1 5v7l-3 15-3 6 1 10-3 15-2 18-3 8v14l-2 11-1 14-5 13 1 4v9l-3 11-2 17-4 11 1 3v7l-3 11-1 14-3 10-1 2v13l-2 10-1 12-3 12-2 4v5l1 1-1 11-3 23-4 10v14l-3 14-2 17-3 8v12l-2 12v8l-5 16v8l1 4-3 9v11l-3 13-8 11-5 3-5-1-3-2-2-18v-9l5-12 1-8-1-5 3-6v-9l-1-7 2-10 3-5 1-9v-8l3-5-1-8-1-4 3-12 3-4 1-8v-8l2-5v-18l2-7 3-7-1-12 4-8-1-7v-8l2-8 3-6v-14l3-6v-21l4-8 1-1v-14l3-7v-20l5-10 1-6-1-5 3-15-1-4 1-13 4-6 1-8v-9l2-3v-23l4-7 1-10 1-9 2-8v-15l5-11v-14l2-9 1-20 4-7v-13l2-6 1-23 5-9-2-4-8-1-11-4-5 1-8 2-5-2-7 1-12 3-6-1-5-3-5-1-10 3-6-2-7 1-11 2h-7l-7-1 1 3v18l-4 13v10l-2 9v21l-3 8-1 17-2 4 1 17-3 9-2 5v14l-3 6v8l2 7-4 11-2 3v17l-2 5v22l-4 9v14l-3 7 1 7v10l-3 10-2 5 1 11-2 3-1 6 2 3-1 11-2 10-3 3 1 15-3 6 1 11v10l-4 8-1 6 1 9-5 5-3 10-4 4h-6l-4-3-6-15-3-7v-11l2-5-3-6-1-5v-11l-4-8-2-10 1-15-3-6v-9l-4-15-1-10 2-4-4-15-2-13-4-15v-4l2-1v-7l-4-7v-11l-5-16v-8l1-2v-8l-3-7-1-11-4-15-1-8 3-1-3-12-2-6v-8l-5-13-1-7 2-6-3-12-3-17-4-12v-5l2-2V79l-2-7 1-4 4 1 3 5 5 1V64l2-1 5 3 4 9 2 15 1 8 1 19 4 10v8l3 11 1 14-1 5 4 10v9l2 7 2 19-1 3 4 13 1 12 2 7 1 17 1 8 3 9v8l3 10 1 15v6l4 6v13l2 6 1 10v15l4 8 3-9 2-7v-17l2-3v-12l4-19v-16l2-4 1-14 4-15v-17l2-5 1-18 4-15-1-13 2-5v-14l4-14v-19l4-26 3-8V89l2-5V73l2-11 6-11 3-5v-2l-3-2 1-5zm27 7-2 4 3-2zm-97 309-2 2 5 1-1-3zm123 286 2 2v-2zM119 34l10 2 8-1h12l10 2h7l3-2 18 1 3-2 10 1 5 1 4 1 9 1v-2l7-2 10 3 6-3h7l1 1 10 2h9l6-3 10 3 10-2 14 1 2 1h12v-2l9 1 3 1 6-2h12l9 2h9l4-2h7l7 1 13-2 11 3h9l3-2h8l10 1 4-2 15 2 5 1 7-1 2-1 18 1 3-1h8l11 2 4 1 2-2h5l5 5v2l4-1v-6l1-1h5l2 2 1 6v22l-1 13-1 2v6l2 3v11l-1 4 1 4v18l-2 5v7l3 7-1 5v25l-4 11-4 6-3 2-7-1-3-8-2-11-3-10-5 1-6 3-4 5 9-1 7 1-2 5-9 3h-7l-8-1-2 1h-12l-2 1-5-2h-11l-7 2-4-1h-8l-9 1-11-1-1-1h-10l-6 2-7-1-11 1-1 24v21l-1 2v6l2 9v26l-2 9v8l1 1v19l1 12-1 9-2 5 1 5 1 2v39l-2 4 1 6 1 1v40l-2 5 2 7v38l-1 4v7l1 3v39l-2 6 2 5v40l-1 9 1 3v37l-5 12-4 4h-6l-5-5-3-7-2 2-5 1h-10l-7-1-2 1h-15l-3-1h-12l-2 1-16-1-8 2h-7l-12-3-9 2h-7l-8-1-11 2-17-4-7-5-1-7 3-3 21-6 4-1 6 1 7 3h7l2-1h8l7 1 16-4 10 4 10-1h9l7 1 10-4 8 1 6 3h15l6-7-1-23 1-9-2-7v-10l2-3v-12l-1-8 2-8-3-8v-12l3-6v-7l-1-4v-9l1-6-2-5-1-14 4-7-2-9v-8l1-7-2-6-1-13 3-5v-10l-1-3v-8l1-6-2-8-1-12 3-4v-9l-1-1v-9l1-8-2-5-1-15 3-5v-7l-2-8 2-7-1-7-2-18 3-4v-8l-1-2v-9l1-7-3-13v-6l3-5-1-10-1-7 2-4-8-7-1-2v-7l4-3 18-4h13l3 2 8 1 4-2h8l2 1h7l5-2h14l9 3 7-2h7l5 2 6-2 8-1h9l9 3 11-2 5 3v-4h3l1-4v-7l-1-8 1-9-1-6-1-4v-13l3-1v-8l-2-13 1-9-3-11-2-10-13 2-6 2h-6l-9-4-6 1-1 1h-9l-6-2-9 3-7 2-7-3-5-2-6 1-3 1h-8l-8-1-6 1-5 1v2l-10-2-3-2-6-1-5 2h-8l-8-1-5 1-2-1v2l-4 2-2-1h-6l-3-2v-2l-14 2-5 1-10-3-6 3-12 1-5-3-9-1-5 3-12-2-4 1-10 2h-8l-2-4-5 1h-7l-2 1h-8l-6-2-8 3-12 1-6-3-6-1-9 3-9-3-7 3-15 1-4-3-6-1-5 2h-9l-2-1h-6l-7 2h-5l-1 8v10l-2 3v9l1 3v8l-1 5 2 7v17l-2 4v14l-4 2-3-3-1-3-5-2v7l-1 1h-5l-3-5v-33l2-5-1-10-1-4v-9l1-5-2-16-2-4 1-5 5-4v-4l-5-2-2-4 2-2h21l3-1 18 1 10 1zm-25 9-3 2 1 3 4-3v-2zm307 0 1 2zm-206 1 1 2zm52 0-1 2 3-1zm204 0v3zm50 0v3l3-1v-2zm-152 0-2 2h3zM73 63v2h3v-2zm459 3v2l4 1-1-3zm-49 102-3 3 1 3 2-2 1-4zm-116 13 2 4 5 7h3l1-8-5-2zm-9 443-6 4 1 4 6-1 4 2-1-9zm-133 6v3l2-3zm101 0 2 4 1-2-1-2zm-50 1 1 2z"/><path fill="#4D96B4" d="M911 180h6l4 4 8 22 1 9-3 5 4 10 1 15 4 11 1 9-2 6 4 12 2 16 3 9v9l-1 7 3 10 1 12 5 14v7l-1 7 3 10 1 13 4 12v7l-1 7 4 14v8l5 16v9l-1 6 4 12-1 6 6 18v8l-1 1v7l2 4 1 13 5 18v6l-1 2v7l3 7v12l4 9 3 14 21-3h9l3 2 7 1 6-2h7l6 2 13-4h7l5 3 7 1 5-2h8l2 1h6l5-2 13-1 6 3 8 1 8-2 2 1-1 4-4 2h-3l-2 5v2l2-2 7 2 1 5-2 2-10 1-11-1-2 1h-17l-6-2-6 1-5 2-7-1-6-1-9 2-12-1-5-2-8 1-3 2-9-2-6 1-7 1h-12l-5-3-5-1-2 4-4-1-5-5-4-3 1 8-1 2h-7l-2-3-5-33-1-13-2-6-4-28v-14l-3-8-5-31v-12l-3-9-3-17-2-15v-9l-3-13-4-27v-12l-3-12-1-9-3-10-1-10 1-3-4-18-4-25-1-13-1-7h-2v12l-2 7v7l-5 18-1 8 1 5-3 14-1 12-5 16 1 10-3 14-3 21-2 3v6l1 4-3 12-1 11-4 18v11l-2 10-2 21-4 10 1 9-5 33-2 5-2 18-3 23-5 12-5 7-5 1-10-2-12-1-5-1-10 2-11-2h-13l-4 1h-20l-5 1-10-2h-9l-10 1h-7l-2-1-7 1-1 1-12-1-7-2-9 2-3 1-11-2-11 2-13-2-9-4-5-5-1-4 4-4 5-2 9-1 3-2 14-1 7 4 11-2h7l7 1 12-3 9 1 5 2h9l2-1h6l2 1h8l3-2 5-1h8l6 3h11l1-1h7l5 2 5-2 14-2 9 3h9l4-4 3-10 3-3 1-16 2-6v-19l3-7 1-2 2-18 1-3v-22l5-9v-13l2-6v-12l2-14 3-5 1-16 2-6v-19l5-10v-11l2-8 1-23 5-10 1-15 1-2v-18l2-9 3-4 1-7-1-1 1-9 1-3v-21l5-10 1-6v-8l5-5 2 9 1-3-1-9-2-13v-16l3-12zm-5 84v3l3-1-1-2zm-69 362-2 4-2 2h3l4-3v-3zm224 1-3 3 1 3 3-4zm50 0-1 4-2 1h5l1-4zm-454 1-1 4h2zm351 0-1 5h2l1-5zm-198 1-1 3 2 2v-5zm222 0-1 3 3 1-1-4zm-352 1v2h2v-2zm27 0 1 4 1-4zm377 0-1 2 2 2zm-353 1 1 2zm28 0 1 3zm23 0 2 3v-3zM232 138l6 1 5 6 2 12 1 18-3 5 2 11-2 11 2 5 1 8v10l-3 3 1 11 1 7-1 7 2 16v8l-2 3h-2l2 10v16l1 10 1 4v7l-3 3v7l1 4v18l2 12v7l-3 4 1 19v9l2 12v6l-3 4 1 11v11l-1 5 2 8 1 2-1 14-2 3 1 18-1 5 2 9v14l-2 2 1 21-1 3 3 14v9l-3 7v8l1 7-2 2-4-1-3-6-1-3-3 1-1 9-5 1-2-1-2-11 1-33 1-7-1-5v-39l1-7-2-8 1-37 1-2-1-9-1-23 1-16 1-8-1-5v-38l1-5-1-6v-40l1-2v-7l-1-3V153l6-12zm-2 24 1 2zM1852 124l13 1 2 1h7l2-1h18l14-1 10 2h8l3-1h33l11 3 8 5 3 6v145l-4 10-3 3-7 1-4-3-2-5-1-11-3-9-1-7h2l3-9-1-7-1-2v-6l1-2v-6l-3-9v-11l4-8-1-6-1-7 1-3v-7l-3-13v-6l4-7 1-4-19-1-6-3h-6l-2 2-8 1-6-3-6 2-16 1-6-3-7 1-9 1-9-2-14 3-1 1-1 17-1 4v21l-1 5 2 5v15l-2 3 1 19h-3l-7-8-3-1-2 10-4 1-4-8-1-7 1-9-1-8 2-13v-11l-2-9 2-8-1-4-1-13-2-7 5-6v-3l-4-4-1-4 2-2h19zm3 9-1 4h2zM1879 389l9 2 15-1h12l6 2h5l4-3 12 2 13-1h7l11 4 8 5 3 5v44l-1 5 1 3v92l-5 12-4 3-5-1-3-3-4-14-3-7-1-10 2-1 3-7-1-7-1-5 1-4v-9l-3-12 1-6 3-7v-6l-1-2v-16l-2-13 1-10 3-7-7-1-12-1-9-3-5 2h-9l-6-2-5 2-16 1-6-3-12 2h-6l-7-2-15 4v12l-2 7-1 1 1 12 1 6-2 6 1 6 1 2v17l-2 6v8l1 5-3 2-5-5-1-4h-4v6l-3 4-5-1-3-10 1-14v-16l1-4v-10l-2-9 2-5-1-9-2-14-1-5 6-7 1-2-5-1-3-3 1-4 4-2h9l7 1 7-1h14l4 2h8zm-25 9-1 4h3v-4z"/><path fill="#4D96B4" d="m1820 260 13 1 4 2h7l3-1h8l8 1 12-3h7l5 3h8l3-1h8l8 1 14-3 6 1 9 3 8-2 5 1 1 4-8 5v3l8 1 2 1-2 5-6 3-5 1-9-2-6 1-7 1-15-3-9 1-6 2-5-2h-8l-7 2-4-2-3 1-7-2h-8l-9 3-7-2h-6l-2 1h-10l-12-3-9-5-1-7 2-4 9-3h6zM1825 524l8 3 3 2h9l2-1h9l2 1h7l4-2 13-2 5 4h9l5-2 12 2 9-3 10-1 7 4h9l6-2 3 2-1 4-7 4-1 2 12 3-2 5-9 3h-9l-2-1h-6l-5 2-6-1h-2l-7-1h-11l-7 2-6-2h-6l-9 2-6-1-5-1h-11l-7 2-5-1-8-1-3 1h-14l-11-4-7-6 1-7 4-3 3-1 11-1zm47 12-1 4 2-4zm-52 1-2 6 4-4v-2zm50 3 1 2zM75 156l8 1 3 3 6 1 6-2 16 1 8-2h12l5 3h7l4-2 8 1 5 1 5-2 7-1h11l4 2h8l6-1 2 2-1 4-6 5-1 2 4-1 4 3-1 5-1 1-33 1-6-1h-11l-9 1h-15l-3 1h-6l-5-1-4-1h-9l-4 1H83l-5 1h-3l-15-2-8-4-3-3-1-7 5-4 20-5zm98 15 1 2zM1421 464l2 1z"/></svg>